<svg xmlns="http://www.w3.org/2000/svg" width="96" height="96"><path d="M42 10c1.683.972 3.354 1.966 5 3 2.7-.647 2.7-.647 5-2 4.24-2.12 9.842-1.72 14.262-.246C72.768 13.914 78.534 17.896 81 25c.499 4.556.453 8.64-1 13l1.75.625c3.158 1.93 4.954 3.95 6.25 7.375 1.127 7.822.15 15.207-4 22-2.985 3.33-5.745 5.582-10 7-2.333.04-4.667.044-7 0l-.063 2.625C65.648 82.266 62.93 84.366 59 87c-3.64 1.213-7.02 1.222-10.813 1.25l-2.119.063c-5.535.04-9.545-1.066-13.713-4.778C30.11 80.705 28.708 78.525 28 75l-1.723-.008c-5.401-.27-8.863-1.25-12.77-5.074C8.544 63.602 7.326 56.6 7.61 48.711 8.184 44.72 9.232 42.922 12 40c2.25-1.375 2.25-1.375 4-2l-1-3c-.77-6.197-.355-11.012 3.3-16.176C24.953 11.684 32.42 9.046 42 10Z" fill="#3D229A"/><path d="M52 43c2 2 2 2 2.125 4.625L54 50l1.809.77C61.419 53.92 65.215 61.05 67 67c.667 4.934 1.18 9.726-1.172 14.258C62.968 84.78 60.386 86.679 56 88a92.857 92.857 0 0 1-7.938.313l-2.091.048c-6.301.006-10.153-1.78-14.846-5.861-2.775-3.629-2.768-7.185-2.54-11.629C29.798 62.477 33.626 55.621 40 50h2l-.188-2.313C42 45 42 45 43.063 43.126 46.172 41.319 48.617 42.2 52 43Z" fill="#7D56C1"/><path d="M45.313 11.375c5.963 5.824 8.208 13.076 9.062 21.188C54 36 54 36 51.5 38.437L49 40c-4.01-1.552-7.91-3.304-11.816-5.098C30 31.934 22.507 32.722 15 34c-.62-5.944-.163-10.179 3.3-15.14 7.06-7.726 17.017-11.634 27.012-7.485Z" fill="#4426A0"/><path d="M82 38c3.22 2.867 5.817 6.103 6.238 10.469.196 7.978-.423 15.274-5.957 21.449C77.3 74.362 73.728 75.127 67 75l-.402-2.3-.535-3.013-.528-2.988C65.043 63.92 65.043 63.92 64 61l1.875-1.75c3.101-3.283 3.988-5.175 4.563-9.688-.187-3.634-.187-3.634-2.313-6.5C63.753 40.178 60.092 40.556 55 41c6.767-7.202 18.357-6.223 27-3ZM38 38l1 2-2.082.297-2.73.453-2.708.422C28.437 42.188 27.562 43.236 26 46c-.796 6.03.753 9.129 4 14l2 2c-.426 2.785-.426 2.785-1.313 6.063l-.863 3.285C29 74 29 74 28 75c-4.824.238-8.941-.465-12.813-3.438C9.602 66.094 7.795 59.403 7.5 51.75 7.68 46.757 8.523 43.767 12 40c6.781-6.145 17.885-4.934 26-2Z" fill="#5D34B0"/><path d="M52 43c2 2 2 2 2.125 4.625L54 50l1.875.813C58 52 58 52 60 55c.464 4.173.45 6.287-1.813 9.875-3.805 3.697-7.71 3.399-12.742 3.348C42.283 67.935 40.42 67.042 38 65c-2.172-3.259-2.236-3.82-1.813-7.5l.231-2.344c.684-2.535 1.52-3.56 3.582-5.156h2l-.188-2.313C42 45 42 45 43.063 43.126 46.172 41.319 48.617 42.2 52 43Z" fill="#5F37B1"/><path d="m45 42-2 3-.25 2.375c-.923 3.231-2.564 4.307-5.184 6.29-2.462 2.1-3.899 4.578-5.566 7.335-3.016-1.04-3.98-1.97-5.75-4.688C24.816 52.513 24.487 50.03 25 46c1.578-3.227 2.906-4.59 6.281-5.855C36.778 38.779 40.131 38.668 45 42ZM65 40c3.002 1.801 4.452 2.903 6 6 .777 6.477-1.33 9.954-5 15-3.47-1.156-3.972-2.017-6-4.938-1.944-2.789-3.102-4.13-6-6.062a168.693 168.693 0 0 1-2-6l-2-2c4.764-2.803 9.619-2.67 15-2Z" fill="#4627A0"/><path d="m52 43 2 2c-.188 3.5-.188 3.5-1 7-3.221 2.148-4.26 2.561-8 2-2.286-2.128-2.923-3.474-3.375-6.563C42 45 42 45 43.063 43.126 46.172 41.319 48.617 42.2 52 43Z" fill="#F5AF51"/></svg>